<?xml version="1.0" encoding="UTF-8" standalone="no"?>
<!-- Created with Inkscape (http://www.inkscape.org/) -->

<svg
   width="67.73333mm"
   height="67.733337mm"
   viewBox="0 0 67.73333 67.733337"
   version="1.1"
   id="svg1"
   xmlns:inkscape="http://www.inkscape.org/namespaces/inkscape"
   xmlns:sodipodi="http://sodipodi.sourceforge.net/DTD/sodipodi-0.dtd"
   xmlns="http://www.w3.org/2000/svg"
   xmlns:svg="http://www.w3.org/2000/svg">
  <sodipodi:namedview
     id="namedview1"
     pagecolor="#ffffff"
     bordercolor="#999999"
     borderopacity="1"
     inkscape:showpageshadow="0"
     inkscape:pageopacity="0"
     inkscape:pagecheckerboard="0"
     inkscape:deskcolor="#d1d1d1"
     inkscape:document-units="mm" />
  <defs
     id="defs1" />
  <g
     inkscape:label="图层 1"
     inkscape:groupmode="layer"
     id="layer1"
     transform="translate(-1.0476257,-1.6191651)">
    <g
       id="g1">
      <path
         fill-rule="evenodd"
         clip-rule="evenodd"
         d="m 29.623848,36.092105 c -1.04664,0 -1.92288,1.12778 -2.65916,1.82109 -0.67141,0.63269 -1.60332,1.02419 -2.6334,1.02419 -2.04579,0 -3.70425,-1.54525 -3.70425,-3.45146 0,-1.9063 1.65846,-3.45155 3.70425,-3.45155 1.14733,0 2.17284,0.4864 2.85221,1.2492 0.63291,0.7104 1.44921,1.8274 2.44035,1.8274 0.99116,0 1.80747,-1.11672 2.44036,-1.8274 0.67929,-0.76252 1.7048,-1.2492 2.85228,-1.2492 1.14774,0 2.17381,0.4864 2.85333,1.25039 0.63183,0.7104 1.44738,1.82621 2.43775,1.82621 0.9901,0 1.80564,-1.11599 2.43748,-1.82621 0.67949,-0.76344 1.7056,-1.25039 2.85334,-1.25039 2.04586,0 3.7043,1.54525 3.7043,3.45155 0,1.90621 -1.65844,3.45146 -3.7043,3.45146 -1.0305,0 -1.96303,-0.39223 -2.63447,-1.0252 -0.73533,-0.69303 -1.61075,-1.82008 -2.65635,-1.82008 -1.04587,0 -1.92133,1.12705 -2.65662,1.82008 -0.67141,0.6327 -1.60397,1.0252 -2.63446,1.0252 -1.03023,0 -1.96197,-0.39223 -2.63342,-1.02419 -0.73611,-0.69304 -1.61257,-1.82109 -2.65922,-1.82109 z"
         fill="#157cd5"
         id="path8"
         style="stroke-width:2.51057" />
      <path
         fill-rule="evenodd"
         clip-rule="evenodd"
         d="M 13.072148,14.370385 31.150958,1.8195954 c 0.71051,-0.49372 1.72097,-0.0183 1.72097,0.80458 v 7.2722 h 8.44976 c 15.16531,0 27.45927,11.4551096 27.45927,25.5856196 0,3.30929 -0.67427,6.47202 -1.90202,9.3749 -0.23427,0.55406 -0.94479,0.76801 -1.49844,0.47086 l -6.40364,-3.44506 c -0.45782,-0.24595 -0.65271,-0.76435 -0.49032,-1.23347 0.56378,-1.62772 0.86866,-3.36415 0.86866,-5.16686 0,-9.28 -8.0738,-16.80291 -18.03349,-16.80291 h -10e-4 -5.48572 v -2.6e-4 h -19.9912 c -4.17917,0 -4.56338,-3.25534 -2.7716,-4.30861 z"
         fill="#157cd5"
         id="path9"
         style="stroke-width:2.51057" />
      <path
         fill-rule="evenodd"
         clip-rule="evenodd"
         d="m 56.756408,56.601465 -18.07882,12.55061 c -0.71051,0.49372 -1.72096,0.0183 -1.72096,-0.80458 v -7.2722 h -8.44978 c -15.16532,0 -27.4592223,-11.45511 -27.4592223,-25.58562 0,-3.30929 0.674273,-6.47192 1.901852,-9.37481 0.234376,-0.55406 0.94479,-0.76801 1.498526,-0.47086 l 6.4037143,3.44497 c 0.45782,0.24594 0.65271,0.76435 0.49032,1.23347 -0.56398,1.62781 -0.86857,3.36424 -0.86857,5.16686 0,9.28009 8.07382,16.80291 18.03341,16.80291 h 0.001 5.48572 v 5.2e-4 h 19.99128 c 4.17903,0 4.56335,3.25535 2.77152,4.30862 z"
         fill="#ec523b"
         id="path10"
         style="stroke-width:2.51057" />
    </g>
  </g>
</svg>
